<?xml version="1.0" encoding="utf-8"?>
<!-- Generator: Adobe Illustrator 16.0.5, SVG Export Plug-In . SVG Version: 6.00 Build 0)  -->
<!DOCTYPE svg PUBLIC "-//W3C//DTD SVG 1.1//EN" "http://www.w3.org/Graphics/SVG/1.1/DTD/svg11.dtd">
<svg version="1.1" id="Layer_1" xmlns="http://www.w3.org/2000/svg" xmlns:xlink="http://www.w3.org/1999/xlink" x="0px" y="0px"
	 width="960px" height="960px" viewBox="0 0 960 960" enable-background="new 0 0 960 960" xml:space="preserve">
<g>
	<path fill="#FFFFFF" d="M207.922,718.263c-0.376-0.286-0.783-0.492-1.222-0.62c-0.439-0.127-0.917-0.126-1.437,0.003
		c-0.518,0.13-1.063,0.446-1.636,0.954c-0.893,0.79-1.281,1.619-1.167,2.486c0.115,0.868,0.53,1.707,1.247,2.517l2.518,2.846
		l5.116-4.529l-2.457-2.775C208.619,718.842,208.297,718.549,207.922,718.263z"/>
	<path fill="#FFFFFF" d="M170.684,648.653c1.009-1.394,1.013-3.03,0.014-4.912c-1.028-1.938-2.406-2.92-4.134-2.947
		s-3.982,0.697-6.764,2.174c-2.889,1.534-4.81,3.018-5.764,4.448c-0.953,1.434-0.908,3.131,0.135,5.097
		c0.97,1.828,2.322,2.729,4.054,2.699c1.733-0.028,4.018-0.794,6.853-2.299C167.807,651.466,169.675,650.046,170.684,648.653z"/>
	<path fill="#FFFFFF" d="M312.759,737.246c-17.71-11.564-34.36-25.033-49.666-40.339c-44.451-44.452-73.558-99.548-84.711-160.07
		c-0.456-2.471-0.881-4.837-1.276-6.837h50.984l-54.771-55.37l-56.775-57.075l-54.761,55.209L4.999,530h59.523
		c0.289,2,0.604,4.364,0.936,6.837C82.18,661.277,153.612,768.08,254.764,832.84l-19.939-74.562L312.759,737.246z M113.465,556.641
		c-0.242-0.054-0.391-0.248-0.447-0.583l-0.915-5.438c-0.087-0.518-0.073-0.896,0.042-1.135c0.116-0.238,0.363-0.516,0.744-0.829
		l5.417-4.014l4.974-3.607l-0.046-0.273l-5.948-1.913l-6.055-1.988c-0.493-0.168-0.877-0.338-1.155-0.512
		c-0.276-0.172-0.459-0.518-0.546-1.035l-0.922-5.482c-0.062-0.366,0.006-0.612,0.201-0.739c0.196-0.127,0.427-0.134,0.694-0.021
		l19.781,7.292l10.039-1.688c0.242-0.041,0.477-0.024,0.706,0.046c0.229,0.071,0.376,0.306,0.443,0.7l0.892,5.301
		c0.112,0.671-0.163,1.062-0.826,1.173l-10.04,1.688l-16.256,12.835C113.965,556.619,113.706,556.693,113.465,556.641z
		 M119.668,581.817c-0.227-0.086-0.392-0.34-0.498-0.76l-2.756-11.013c-0.3-1.197-0.42-2.434-0.36-3.706
		c0.06-1.272,0.337-2.465,0.831-3.576c0.495-1.109,1.241-2.094,2.24-2.947c1-0.855,2.285-1.479,3.857-1.873
		c0.741-0.188,1.526-0.294,2.353-0.327c0.828-0.03,1.646,0.06,2.455,0.27c0.81,0.212,1.598,0.558,2.363,1.033
		c0.766,0.478,1.468,1.113,2.108,1.908l10.005-8.379c0.289-0.23,0.55-0.32,0.784-0.269c0.234,0.055,0.392,0.244,0.474,0.574
		l1.384,5.528c0.112,0.449,0.137,0.833,0.075,1.15c-0.063,0.319-0.268,0.602-0.616,0.848l-9.129,7.155l0.731,2.924l10.276-2.573
		c0.238-0.06,0.473-0.063,0.707-0.009c0.234,0.053,0.403,0.289,0.508,0.708l1.293,5.17c0.105,0.419,0.085,0.719-0.059,0.896
		c-0.144,0.181-0.364,0.307-0.661,0.381l-27.626,6.914C120.141,581.914,119.896,581.904,119.668,581.817z M128.107,607.964
		c-0.232-0.068-0.413-0.294-0.54-0.675l-5.828-17.447c-0.206-0.616,0.008-1.028,0.641-1.24l3.929-1.312
		c0.26-0.088,0.497-0.094,0.713-0.021c0.217,0.074,0.389,0.304,0.516,0.684l3.802,11.383l5.306-1.772l-3.317-9.933
		c-0.225-0.674-0.033-1.112,0.576-1.314l3.958-1.322c0.261-0.087,0.5-0.094,0.718-0.021c0.218,0.074,0.396,0.316,0.533,0.728
		l3.317,9.932l6.263-2.092l-3.875-11.604c-0.215-0.644-0.003-1.072,0.634-1.285l3.958-1.322c0.261-0.087,0.493-0.092,0.697-0.014
		s0.369,0.311,0.496,0.689l5.886,17.623c0.128,0.382,0.126,0.667-0.004,0.856c-0.13,0.188-0.326,0.327-0.586,0.416l-27.011,9.021
		C128.602,608.019,128.34,608.032,128.107,607.964z M141.048,639.391c-0.232-0.002-0.44-0.215-0.622-0.642l-1.94-4.563
		c-0.242-0.567-0.33-1.01-0.264-1.321c0.066-0.313,0.3-0.623,0.702-0.929l8.593-7.331l7.997-6.622l-0.091-0.215l-10.366,1.287
		l-10.921,1.271c-0.482,0.038-0.887-0.018-1.215-0.163c-0.328-0.146-0.595-0.46-0.8-0.943l-2.104-4.945
		c-0.181-0.428-0.162-0.694,0.057-0.806c0.22-0.109,0.473-0.177,0.762-0.198l29.466-2.311c0.427-0.013,0.797,0.039,1.113,0.156
		s0.613,0.503,0.891,1.157l2.049,4.817c0.242,0.568,0.319,1.021,0.23,1.361c-0.087,0.34-0.305,0.65-0.65,0.932l-22.163,19.598
		C141.523,639.257,141.282,639.393,141.048,639.391z M155.146,661.883c-1.186-0.474-2.334-1.219-3.445-2.237
		c-1.111-1.018-2.131-2.399-3.058-4.146c-1.361-2.564-2.052-4.829-2.074-6.794c-0.021-1.964,0.385-3.71,1.218-5.236
		c0.834-1.525,1.982-2.853,3.444-3.978c1.462-1.126,2.99-2.112,4.583-2.957c1.54-0.817,3.201-1.55,4.985-2.199
		c1.784-0.65,3.588-0.935,5.414-0.854c1.825,0.08,3.606,0.664,5.343,1.755c1.738,1.088,3.316,2.97,4.734,5.644
		c0.942,1.774,1.539,3.405,1.794,4.897c0.255,1.489,0.26,2.852,0.013,4.084c-0.246,1.23-0.707,2.351-1.385,3.356
		c-0.677,1.007-1.47,1.927-2.378,2.757c-0.908,0.833-1.888,1.58-2.938,2.241c-1.05,0.663-2.088,1.267-3.115,1.813
		c-0.783,0.415-1.692,0.837-2.729,1.265c-1.036,0.428-2.123,0.76-3.261,0.995c-1.138,0.237-2.316,0.347-3.537,0.331
		C157.535,662.6,156.332,662.354,155.146,661.883z M168.245,685.676c-1.729-0.96-3.356-2.622-4.881-4.983
		c-0.787-1.22-1.507-2.547-2.161-3.982c-0.653-1.435-1.096-2.813-1.33-4.132c-0.071-0.506-0.064-0.933,0.02-1.281
		s0.405-0.628,0.959-0.84l2.561-0.937c0.41-0.153,0.721-0.181,0.932-0.077c0.212,0.103,0.443,0.403,0.693,0.903
		c0.575,1.173,1.155,2.298,1.739,3.372c0.585,1.075,1.145,2.027,1.681,2.857c0.704,1.091,1.477,1.852,2.318,2.281
		c0.843,0.432,1.736,0.616,2.68,0.56c0.945-0.058,1.926-0.314,2.942-0.769c1.018-0.454,2.052-1.021,3.105-1.701
		c1.208-0.779,2.247-1.55,3.118-2.315c0.871-0.763,1.515-1.557,1.932-2.376c0.417-0.821,0.576-1.687,0.479-2.599
		c-0.097-0.911-0.489-1.898-1.175-2.964c-0.687-1.063-1.349-2.005-1.988-2.825c-0.638-0.819-1.414-1.798-2.331-2.937
		c-0.37-0.459-0.56-0.797-0.57-1.01c-0.01-0.215,0.143-0.497,0.461-0.85l1.716-1.824c0.404-0.444,0.791-0.647,1.161-0.611
		c0.37,0.037,0.771,0.192,1.201,0.467c0.524,0.359,1.066,0.792,1.626,1.294c0.561,0.502,1.112,1.047,1.655,1.634
		c0.543,0.588,1.053,1.196,1.532,1.824c0.479,0.629,0.911,1.241,1.296,1.838c1.507,2.337,2.359,4.488,2.557,6.457
		c0.198,1.968-0.053,3.767-0.75,5.393c-0.697,1.626-1.732,3.094-3.107,4.403c-1.374,1.31-2.857,2.478-4.451,3.507
		c-1.566,1.01-3.236,1.877-5.009,2.598c-1.772,0.723-3.551,1.079-5.338,1.074C171.734,687.119,169.976,686.637,168.245,685.676z
		 M187.23,713.209c-0.242,0.009-0.484-0.146-0.728-0.467l-11.117-14.655c-0.392-0.517-0.322-0.977,0.209-1.38l3.3-2.504
		c0.218-0.166,0.441-0.247,0.67-0.246c0.229,0,0.465,0.161,0.708,0.479l7.253,9.562l4.458-3.38l-6.329-8.344
		c-0.429-0.565-0.388-1.044,0.124-1.432l3.325-2.521c0.219-0.166,0.444-0.25,0.674-0.25s0.476,0.173,0.737,0.517l6.329,8.344
		l5.261-3.991l-7.393-9.744c-0.411-0.541-0.348-1.017,0.188-1.424l3.325-2.521c0.219-0.166,0.438-0.245,0.656-0.236
		c0.219,0.009,0.449,0.175,0.691,0.494l11.229,14.803c0.243,0.32,0.333,0.592,0.271,0.813s-0.203,0.416-0.422,0.582l-22.688,17.211
		C187.716,713.102,187.473,713.198,187.23,713.209z M229.031,715.819c-0.045,0.225-0.182,0.438-0.411,0.642l-21.323,18.877
		c-0.206,0.183-0.429,0.287-0.67,0.315c-0.241,0.025-0.504-0.121-0.792-0.445l-7.524-8.499c-0.818-0.925-1.495-1.967-2.029-3.124
		c-0.535-1.156-0.838-2.341-0.913-3.555c-0.073-1.214,0.136-2.431,0.628-3.65c0.493-1.219,1.345-2.366,2.558-3.439
		c0.573-0.507,1.219-0.966,1.938-1.375c0.719-0.408,1.487-0.706,2.302-0.894c0.815-0.185,1.673-0.243,2.572-0.173
		c0.9,0.07,1.816,0.311,2.751,0.721l5.013-12.049c0.15-0.339,0.34-0.538,0.572-0.6s0.46,0.037,0.686,0.291l3.778,4.268
		c0.307,0.347,0.506,0.676,0.598,0.986c0.092,0.312,0.04,0.656-0.156,1.035l-4.799,10.56l1.996,2.256l7.932-7.021
		c0.184-0.162,0.391-0.274,0.623-0.335c0.232-0.062,0.492,0.07,0.778,0.396l3.532,3.989
		C228.957,715.319,229.077,715.593,229.031,715.819z"/>
	<path fill="#FFFFFF" d="M128.838,566.984c-0.202-0.429-0.467-0.798-0.799-1.113c-0.331-0.315-0.756-0.535-1.276-0.66
		c-0.52-0.124-1.15-0.094-1.892,0.092c-1.156,0.289-1.883,0.847-2.182,1.668c-0.298,0.824-0.316,1.761-0.054,2.81l0.922,3.686
		l6.628-1.659l-0.9-3.596C129.188,567.82,129.039,567.412,128.838,566.984z"/>
	<path fill="#FFFFFF" d="M131.867,383.758c0.316-1.162,0.271-2.159-0.136-2.99c-0.407-0.831-1.215-1.412-2.425-1.742
		c-1.18-0.321-2.146-0.208-2.896,0.339c-0.751,0.548-1.286,1.402-1.603,2.565l-0.877,3.218l7.035,1.917L131.867,383.758z"/>
	<path fill="#FFFFFF" d="M139.628,357.695c0.135-0.377,0.238-0.801,0.308-1.268c0.07-0.467,0.056-0.923-0.045-1.37
		c-0.1-0.445-0.331-0.864-0.694-1.257c-0.363-0.392-0.904-0.717-1.624-0.975c-1.123-0.402-2.036-0.343-2.742,0.175
		c-0.705,0.519-1.24,1.287-1.604,2.305l-1.281,3.577l6.433,2.303L139.628,357.695z"/>
	<path fill="#FFFFFF" d="M173.671,463.865c3.906-75.874,35.303-146.653,89.422-200.771c5.629-5.629,11.443-11.005,17.42-16.138
		c1.912-1.642,3.841-3.258,5.787-4.849l25.481,44.135l20.095-74.998l20.733-77.377l-74.912-20.072l-77.463-20.756l29.767,51.559
		c-2.003,1.495-3.988,3.012-5.964,4.543C129.914,222.064,67.753,334.26,62.127,461.157l54.418-54.418L173.671,463.865z
		 M251.923,182.817l3.079-2.226c0.576-0.416,1.042-0.602,1.397-0.558c0.356,0.045,0.751,0.156,1.185,0.333
		c0.433,0.177,1.116,0.438,2.05,0.781c0.935,0.343,1.992,0.738,3.173,1.186c1.182,0.447,2.414,0.915,3.7,1.399
		c1.284,0.486,2.518,0.953,3.699,1.4c1.182,0.448,2.233,0.848,3.155,1.2c0.921,0.353,1.589,0.605,2.005,0.757
		c0.024-0.018,0.039-0.037,0.043-0.059c0.003-0.021,0.017-0.042,0.042-0.061l-9.431-13.044c-0.143-0.198-0.232-0.426-0.266-0.684
		c-0.035-0.258,0.124-0.514,0.475-0.768l4.168-3.013c0.3-0.218,0.561-0.292,0.781-0.226c0.22,0.067,0.429,0.238,0.625,0.51
		l16.658,23.041c0.179,0.248,0.262,0.48,0.248,0.698c-0.014,0.218-0.171,0.435-0.472,0.652l-3.079,2.226
		c-0.426,0.308-0.805,0.468-1.138,0.483c-0.333,0.014-0.698-0.042-1.095-0.17c-1.973-0.724-3.94-1.442-5.903-2.155
		c-1.963-0.711-3.931-1.43-5.903-2.155l-6.245-2.389l-0.113,0.082l9.431,13.044c0.143,0.199,0.223,0.415,0.239,0.647
		c0.016,0.234-0.139,0.468-0.464,0.703l-4.168,3.014c-0.576,0.417-1.051,0.364-1.428-0.156l-16.685-23.078
		c-0.161-0.223-0.237-0.459-0.229-0.712C251.468,183.269,251.623,183.035,251.923,182.817z M229.842,204.459
		c0.194-1.261,0.662-2.548,1.404-3.86c0.742-1.312,1.86-2.616,3.353-3.913c2.192-1.903,4.244-3.086,6.153-3.549
		c1.909-0.462,3.702-0.46,5.377,0.008c1.675,0.47,3.225,1.29,4.651,2.46c1.425,1.172,2.73,2.438,3.912,3.8
		c1.143,1.315,2.23,2.77,3.265,4.362c1.034,1.592,1.718,3.287,2.05,5.083c0.333,1.797,0.164,3.664-0.506,5.601
		c-0.67,1.939-2.148,3.899-4.434,5.883c-1.517,1.317-2.972,2.266-4.368,2.85c-1.396,0.583-2.72,0.895-3.977,0.932
		c-1.256,0.038-2.45-0.16-3.583-0.594c-1.133-0.433-2.208-0.999-3.222-1.697c-1.015-0.698-1.963-1.484-2.845-2.358
		c-0.881-0.874-1.703-1.75-2.464-2.627c-0.582-0.669-1.197-1.461-1.847-2.375c-0.65-0.913-1.218-1.897-1.704-2.953
		c-0.486-1.055-0.859-2.179-1.118-3.372C229.681,206.948,229.649,205.721,229.842,204.459z M215.033,215.424l3.863-3.803
		c0.309-0.303,0.581-0.411,0.819-0.324c0.238,0.087,0.443,0.219,0.614,0.393l19.947,20.26c0.172,0.174,0.294,0.376,0.367,0.604
		c0.073,0.229-0.045,0.495-0.353,0.798l-3.864,3.803c-0.264,0.26-0.51,0.374-0.737,0.34c-0.228-0.033-0.449-0.159-0.664-0.377
		l-19.947-20.26c-0.214-0.217-0.342-0.446-0.383-0.686C214.657,215.933,214.769,215.684,215.033,215.424z M195.824,235.938
		l14.132-15.52c0.457-0.502,0.933-0.529,1.427-0.079l3.063,2.789c0.202,0.184,0.323,0.388,0.365,0.614
		c0.041,0.226-0.074,0.487-0.344,0.784l-4.617,5.07l17.291,15.745c0.182,0.165,0.315,0.36,0.401,0.584
		c0.086,0.226-0.018,0.497-0.308,0.816l-3.587,3.939c-0.271,0.297-0.521,0.436-0.75,0.415c-0.229-0.021-0.458-0.135-0.685-0.341
		l-17.291-15.745l-4.585,5.036c-0.292,0.32-0.546,0.464-0.764,0.433c-0.218-0.031-0.428-0.139-0.63-0.323l-3.063-2.789
		c-0.224-0.204-0.362-0.413-0.414-0.627C195.413,236.524,195.533,236.258,195.824,235.938z M176.984,259.7l2.333-2.999
		c0.436-0.561,0.832-0.87,1.186-0.927s0.764-0.061,1.229-0.013c0.465,0.049,1.194,0.107,2.187,0.175s2.119,0.151,3.378,0.25
		c1.259,0.099,2.574,0.202,3.943,0.308c1.369,0.106,2.684,0.209,3.943,0.308c1.259,0.099,2.38,0.188,3.364,0.268
		c0.983,0.081,1.695,0.136,2.137,0.166c0.019-0.024,0.027-0.046,0.024-0.069c-0.002-0.021,0.005-0.044,0.024-0.069l-12.705-9.882
		c-0.193-0.15-0.342-0.344-0.447-0.583c-0.105-0.238-0.025-0.527,0.241-0.869l3.157-4.06c0.228-0.292,0.457-0.437,0.687-0.434
		c0.23,0.002,0.478,0.107,0.743,0.314l22.443,17.456c0.242,0.188,0.386,0.388,0.433,0.601c0.047,0.213-0.043,0.466-0.271,0.759
		l-2.333,2.999c-0.323,0.415-0.642,0.675-0.957,0.782s-0.682,0.155-1.099,0.144c-2.097-0.143-4.187-0.282-6.271-0.416
		c-2.084-0.133-4.175-0.272-6.271-0.416l-6.664-0.545l-0.085,0.11l12.706,9.882c0.193,0.15,0.33,0.335,0.411,0.555
		c0.082,0.22-0.002,0.488-0.248,0.805l-3.158,4.06c-0.437,0.562-0.908,0.644-1.415,0.25l-22.479-17.483
		c-0.217-0.169-0.356-0.375-0.419-0.62C176.673,260.261,176.756,259.993,176.984,259.7z M161.562,282.597l10.084-15.385
		c0.355-0.542,0.813-0.631,1.371-0.265l3.464,2.271c0.229,0.15,0.381,0.333,0.457,0.549c0.076,0.216,0.003,0.492-0.216,0.827
		l-6.578,10.037l4.679,3.067l5.74-8.758c0.39-0.594,0.853-0.715,1.39-0.364l3.49,2.288c0.23,0.151,0.384,0.334,0.461,0.552
		c0.077,0.217-0.002,0.506-0.239,0.868l-5.74,8.758l5.522,3.62l6.706-10.23c0.372-0.568,0.84-0.668,1.402-0.3l3.49,2.288
		c0.23,0.151,0.378,0.331,0.442,0.539c0.064,0.209-0.014,0.481-0.234,0.817l-10.185,15.54c-0.22,0.336-0.445,0.511-0.675,0.527
		c-0.229,0.015-0.459-0.052-0.689-0.203l-23.818-15.61c-0.255-0.167-0.428-0.364-0.519-0.589
		C161.277,283.214,161.342,282.933,161.562,282.597z M144.837,312.158l2.381-4.349c0.296-0.542,0.588-0.884,0.875-1.026
		c0.287-0.142,0.675-0.149,1.163-0.023l11.077,2.208l10.153,2.177l0.111-0.203l-7.43-7.342l-7.761-7.788
		c-0.328-0.355-0.536-0.707-0.625-1.055c-0.088-0.347-0.007-0.751,0.246-1.212l2.581-4.715c0.223-0.406,0.445-0.557,0.667-0.454
		c0.222,0.104,0.432,0.263,0.628,0.476l20.062,21.705c0.274,0.327,0.464,0.65,0.566,0.97c0.104,0.321-0.016,0.793-0.356,1.416
		l-2.514,4.593c-0.297,0.542-0.605,0.884-0.927,1.025c-0.321,0.141-0.699,0.163-1.134,0.065l-29.112-5.266
		c-0.369-0.025-0.625-0.131-0.769-0.315C144.575,312.86,144.615,312.564,144.837,312.158z M134.482,334.974l7.52-16.788
		c0.266-0.592,0.703-0.751,1.312-0.479l3.78,1.693c0.25,0.112,0.429,0.268,0.539,0.469c0.109,0.201,0.081,0.486-0.083,0.852
		l-4.906,10.952l5.106,2.287l4.281-9.557c0.291-0.648,0.729-0.841,1.314-0.579l3.809,1.706c0.251,0.113,0.432,0.27,0.542,0.472
		c0.11,0.202,0.078,0.5-0.099,0.895l-4.281,9.557l6.027,2.7l5-11.164c0.278-0.62,0.724-0.792,1.337-0.518l3.809,1.706
		c0.251,0.113,0.425,0.267,0.521,0.462c0.097,0.195,0.063,0.477-0.101,0.843l-7.596,16.957c-0.165,0.367-0.359,0.576-0.583,0.627
		c-0.224,0.051-0.461,0.021-0.713-0.091l-25.989-11.642c-0.279-0.125-0.48-0.292-0.605-0.5
		C134.299,335.627,134.318,335.34,134.482,334.974z M124.079,362.759l3.827-10.688c0.417-1.163,1.003-2.257,1.76-3.282
		s1.649-1.862,2.677-2.512c1.028-0.648,2.195-1.05,3.5-1.207c1.307-0.155,2.722,0.04,4.248,0.585
		c0.719,0.258,1.432,0.604,2.137,1.036c0.706,0.434,1.336,0.963,1.892,1.588c0.555,0.625,1.019,1.349,1.39,2.171
		c0.372,0.822,0.603,1.741,0.693,2.758l12.974-1.409c0.369-0.032,0.636,0.039,0.8,0.213c0.166,0.174,0.19,0.421,0.076,0.741
		l-1.921,5.365c-0.156,0.437-0.349,0.77-0.577,1c-0.229,0.23-0.556,0.351-0.982,0.362l-11.566,0.879l-1.015,2.835l9.973,3.57
		c0.231,0.083,0.428,0.211,0.593,0.385c0.165,0.174,0.174,0.465,0.028,0.871l-1.796,5.017c-0.146,0.407-0.328,0.646-0.548,0.714
		c-0.22,0.068-0.473,0.052-0.761-0.051l-26.811-9.6c-0.259-0.093-0.458-0.238-0.599-0.436
		C123.931,363.468,123.934,363.167,124.079,362.759z M116.376,389.669l2.826-10.371c0.382-1.4,0.932-2.659,1.647-3.777
		c0.717-1.117,1.577-2.035,2.581-2.754c1.003-0.719,2.152-1.183,3.444-1.391s2.706-0.103,4.239,0.315
		c1.033,0.282,2.063,0.715,3.092,1.299c1.029,0.585,1.906,1.377,2.633,2.375c0.726,0.999,1.212,2.236,1.459,3.712
		c0.248,1.476,0.091,3.242-0.47,5.298l-1.157,4.247l9.822,2.677c0.236,0.064,0.443,0.177,0.621,0.337
		c0.178,0.161,0.21,0.45,0.097,0.867l-1.414,5.186c-0.179,0.656-0.592,0.895-1.241,0.718l-27.476-7.488
		c-0.265-0.072-0.476-0.201-0.631-0.388C116.295,390.344,116.271,390.057,116.376,389.669z"/>
	<path fill="#FFFFFF" d="M240.817,212.118c2.024,2.333,3.828,3.833,5.411,4.502c1.583,0.67,3.181,0.306,4.79-1.091
		c1.656-1.438,2.303-3.001,1.941-4.691c-0.362-1.689-1.575-3.723-3.64-6.101c-2.144-2.47-4.021-4.008-5.632-4.615
		c-1.61-0.606-3.255-0.181-4.935,1.277c-1.563,1.357-2.135,2.877-1.719,4.559C237.452,207.641,238.712,209.694,240.817,212.118z"/>
	<polygon fill="#FFFFFF" points="506.194,119.499 505.093,113.793 504.861,113.777 502.961,119.234 501.231,124.242 
		507.241,124.646 	"/>
	<path fill="#FFFFFF" d="M569.295,141.635c2.121,0.557,3.778,0.209,4.969-1.043s2.187-3.401,2.985-6.447
		c0.829-3.164,1.04-5.582,0.633-7.253c-0.408-1.672-1.687-2.79-3.838-3.354c-2.003-0.525-3.581-0.141-4.733,1.152
		c-1.153,1.294-2.138,3.493-2.952,6.598c-0.783,2.987-1.007,5.323-0.664,7.008C566.032,139.981,567.233,141.094,569.295,141.635z"/>
	<path fill="#FFFFFF" d="M340.857,206.465c42.571-21.712,89.971-33.217,139.143-33.217c35.343,0,69.768,5.95,102.146,17.352
		c2.372,0.836,4.735,1.701,7.089,2.595l-25.546,44.246l74.981-20.091l77.394-20.737l-20.069-74.896l-20.761-77.479L645.506,95.73
		c-2.294-0.989-4.594-1.961-6.907-2.91C589.688,72.762,536.136,61.702,480,61.702c-69.509,0-135.053,16.96-192.733,46.958
		l74.451,19.949L340.857,206.465z M585.861,151.333l9.688-26.78c0.093-0.259,0.246-0.455,0.459-0.59
		c0.213-0.134,0.494-0.138,0.843-0.012l3.572,1.292c0.668,0.242,1.084,0.522,1.247,0.841c0.164,0.319,0.295,0.708,0.393,1.166
		s0.267,1.169,0.51,2.135c0.242,0.965,0.51,2.063,0.805,3.29c0.295,1.228,0.604,2.51,0.925,3.846
		c0.321,1.335,0.63,2.618,0.927,3.846c0.294,1.229,0.555,2.322,0.782,3.283c0.228,0.96,0.396,1.654,0.503,2.083
		c0.028,0.011,0.054,0.012,0.072,0.002c0.021-0.009,0.045-0.008,0.073,0.002l5.475-15.137c0.084-0.229,0.223-0.432,0.417-0.605
		c0.193-0.174,0.494-0.187,0.9-0.04l4.837,1.75c0.349,0.126,0.558,0.299,0.625,0.519c0.068,0.22,0.046,0.488-0.068,0.804
		l-9.672,26.737c-0.104,0.288-0.249,0.487-0.438,0.598c-0.188,0.111-0.456,0.103-0.806-0.023l-3.571-1.292
		c-0.495-0.179-0.841-0.402-1.039-0.668c-0.2-0.268-0.359-0.601-0.477-1.001c-0.513-2.038-1.024-4.068-1.542-6.092
		c-0.517-2.024-1.029-4.055-1.54-6.093l-1.54-6.506l-0.131-0.048l-5.475,15.137c-0.083,0.23-0.218,0.417-0.4,0.563
		c-0.184,0.145-0.466,0.148-0.842,0.012l-4.837-1.75C585.867,152.359,585.643,151.937,585.861,151.333z M558.177,132.342
		c0.226-1.222,0.484-2.394,0.779-3.517c0.225-0.857,0.53-1.813,0.919-2.865c0.388-1.051,0.881-2.076,1.477-3.073
		c0.599-0.997,1.314-1.938,2.154-2.825c0.839-0.886,1.835-1.604,2.985-2.156c1.149-0.551,2.477-0.891,3.979-1.018
		c1.502-0.128,3.21,0.06,5.122,0.561c2.809,0.737,4.942,1.764,6.401,3.079s2.468,2.797,3.025,4.444s0.756,3.391,0.594,5.228
		c-0.164,1.838-0.476,3.629-0.933,5.374c-0.441,1.686-1.028,3.404-1.76,5.156c-0.73,1.752-1.745,3.272-3.041,4.56
		s-2.933,2.202-4.91,2.742c-1.979,0.54-4.432,0.426-7.358-0.343c-1.943-0.509-3.548-1.176-4.816-1.999
		c-1.27-0.822-2.272-1.742-3.014-2.758c-0.738-1.016-1.25-2.113-1.53-3.294c-0.282-1.18-0.421-2.386-0.417-3.617
		C557.838,134.789,557.952,133.563,558.177,132.342z M548.198,112.023c0.175-0.169,0.442-0.218,0.808-0.148l5.323,1.027
		c0.424,0.082,0.667,0.246,0.729,0.491c0.063,0.246,0.07,0.489,0.024,0.729l-5.389,27.917c-0.046,0.24-0.145,0.455-0.289,0.645
		c-0.147,0.189-0.435,0.244-0.857,0.162l-5.323-1.028c-0.363-0.07-0.597-0.208-0.698-0.415c-0.103-0.206-0.123-0.459-0.065-0.76
		l5.389-27.917C547.908,112.426,548.024,112.191,548.198,112.023z M519.53,112.614l0.563-4.104c0.042-0.301,0.136-0.533,0.283-0.696
		c0.146-0.164,0.435-0.216,0.863-0.157l20.795,2.854c0.673,0.093,0.965,0.469,0.874,1.13l-0.563,4.104
		c-0.038,0.271-0.137,0.486-0.299,0.648c-0.163,0.162-0.444,0.215-0.841,0.16l-6.794-0.933l-3.181,23.168
		c-0.033,0.242-0.118,0.463-0.255,0.661c-0.137,0.198-0.419,0.267-0.847,0.208l-5.28-0.725c-0.396-0.055-0.651-0.182-0.765-0.383
		c-0.114-0.201-0.149-0.454-0.107-0.757l3.182-23.168l-6.748-0.927c-0.43-0.059-0.691-0.187-0.789-0.384
		S519.493,112.885,519.53,112.614z M489.844,134.737l10.801-27.31c0.184-0.417,0.391-0.732,0.621-0.946s0.654-0.301,1.271-0.259
		l5.825,0.392c0.646,0.044,1.063,0.194,1.247,0.452c0.184,0.258,0.338,0.605,0.464,1.042l7.411,28.581
		c0.067,0.373,0.063,0.648-0.01,0.827c-0.074,0.179-0.28,0.257-0.618,0.234l-5.732-0.386c-0.525-0.035-0.871-0.174-1.041-0.415
		c-0.17-0.242-0.313-0.611-0.437-1.11l-1.159-5.547l-9.199-0.619l-2.04,5.47c-0.188,0.478-0.41,0.8-0.669,0.966
		c-0.26,0.167-0.604,0.235-1.035,0.206l-5.132-0.345c-0.34-0.022-0.565-0.107-0.679-0.252
		C489.618,135.572,489.655,135.245,489.844,134.737z M463.024,115.541c0.327-1.869,0.969-3.561,1.921-5.072
		c0.95-1.512,2.293-2.746,4.024-3.703s3.988-1.456,6.769-1.495c1.481-0.021,3.005,0.072,4.567,0.279
		c1.563,0.207,2.951,0.563,4.163,1.065c0.466,0.177,0.823,0.401,1.075,0.673c0.251,0.271,0.318,0.699,0.204,1.281l-0.564,2.714
		c-0.086,0.459-0.229,0.737-0.429,0.831c-0.2,0.095-0.577,0.116-1.134,0.063c-1.3-0.134-2.537-0.247-3.712-0.337
		c-1.176-0.09-2.257-0.129-3.245-0.115c-1.297,0.019-2.359,0.271-3.188,0.756c-0.826,0.486-1.475,1.145-1.94,1.977
		c-0.468,0.833-0.779,1.808-0.933,2.926c-0.153,1.118-0.222,2.304-0.203,3.557c0.019,1.314,0.104,2.537,0.261,3.665
		c0.153,1.129,0.462,2.111,0.921,2.945s1.087,1.482,1.881,1.945s1.84,0.685,3.138,0.666c0.557-0.008,1.135-0.046,1.736-0.116
		c0.602-0.069,1.148-0.154,1.642-0.252l-0.077-5.502l-3.15,0.045c-0.433,0.006-0.719-0.074-0.861-0.24
		c-0.141-0.166-0.214-0.402-0.218-0.708l-0.055-3.852c-0.004-0.306,0.062-0.543,0.199-0.714c0.136-0.169,0.42-0.258,0.853-0.264
		l9.181-0.13c0.337-0.005,0.601,0.091,0.785,0.287c0.188,0.197,0.283,0.417,0.286,0.661c0.025,1.743,0.053,3.661,0.082,5.754
		c0.029,2.094,0.048,4.517,0.057,7.269c0.009,0.52-0.063,1.002-0.211,1.448c-0.147,0.445-0.543,0.795-1.187,1.049
		c-0.736,0.285-1.521,0.534-2.351,0.744c-0.828,0.21-1.668,0.375-2.514,0.494c-0.847,0.119-1.685,0.214-2.516,0.288
		c-0.832,0.072-1.586,0.114-2.266,0.124c-2.682,0.039-4.892-0.351-6.631-1.167c-1.737-0.816-3.103-1.936-4.094-3.359
		c-0.992-1.422-1.687-3.072-2.083-4.946c-0.397-1.875-0.609-3.852-0.639-5.93C462.544,119.278,462.695,117.411,463.024,115.541z
		 M447.722,107.219c0.124-0.208,0.37-0.327,0.74-0.354l5.406-0.409c0.431-0.033,0.709,0.061,0.834,0.282
		c0.125,0.22,0.197,0.453,0.216,0.696l2.147,28.351c0.018,0.244-0.02,0.477-0.11,0.698c-0.092,0.222-0.354,0.349-0.785,0.381
		l-5.405,0.41c-0.37,0.028-0.631-0.044-0.783-0.217c-0.152-0.172-0.24-0.411-0.264-0.716l-2.146-28.351
		C447.548,107.685,447.598,107.428,447.722,107.219z M419.734,110.475c0.099-0.196,0.362-0.322,0.792-0.378l20.813-2.711
		c0.674-0.087,1.054,0.2,1.14,0.861l0.535,4.107c0.036,0.271-0.004,0.506-0.117,0.704c-0.114,0.199-0.372,0.324-0.77,0.376
		l-6.8,0.885l3.02,23.189c0.032,0.243,0.009,0.479-0.071,0.705c-0.08,0.227-0.333,0.368-0.764,0.424l-5.284,0.688
		c-0.397,0.052-0.678-0.004-0.839-0.168c-0.16-0.164-0.263-0.398-0.302-0.703l-3.021-23.19l-6.754,0.88
		c-0.43,0.056-0.718,0.002-0.862-0.163c-0.146-0.164-0.237-0.382-0.272-0.653l-0.535-4.108
		C419.605,110.92,419.635,110.671,419.734,110.475z M407.462,112.845c0.101-0.221,0.333-0.365,0.697-0.433l5.33-0.99
		c0.425-0.079,0.711-0.016,0.859,0.189c0.148,0.206,0.245,0.429,0.29,0.67l5.195,27.953c0.045,0.241,0.034,0.477-0.033,0.706
		c-0.067,0.231-0.313,0.385-0.739,0.464l-5.329,0.991c-0.364,0.067-0.632,0.024-0.803-0.131c-0.17-0.155-0.282-0.383-0.339-0.684
		l-5.196-27.953C407.34,113.327,407.362,113.066,407.462,112.845z M370.577,121.751c0.084-0.227,0.305-0.388,0.665-0.482
		l3.854-1.007c0.598-0.156,1.045-0.186,1.342-0.09c0.296,0.097,0.6,0.31,0.909,0.639l6.633,7.604l5.114,6.01l0.18-0.046l1.587-7.856
		l2.099-9.744c0.116-0.409,0.269-0.741,0.458-0.997c0.188-0.254,0.581-0.459,1.179-0.616l3.677-0.96
		c0.418-0.109,0.7-0.065,0.849,0.133c0.146,0.198,0.249,0.402,0.302,0.608l7.201,27.552c0.062,0.237,0.075,0.471,0.039,0.701
		c-0.035,0.23-0.263,0.4-0.681,0.509l-5.021,1.313c-0.389,0.101-0.673,0.081-0.854-0.062c-0.182-0.143-0.311-0.361-0.388-0.657
		l-3.548-13.577l-0.146-0.009l-0.665,3.871l-1.329,6.462c-0.117,0.41-0.282,0.753-0.497,1.03c-0.215,0.277-0.577,0.482-1.084,0.615
		l-2.197,0.574c-0.538,0.141-0.959,0.148-1.263,0.022c-0.305-0.125-0.604-0.323-0.897-0.595l-4.468-5.184l-2.451-2.962l-0.078,0.068
		l3.561,13.621c0.062,0.237,0.066,0.473,0.017,0.707c-0.051,0.234-0.285,0.406-0.703,0.516l-5.021,1.312
		c-0.358,0.093-0.628,0.069-0.811-0.073c-0.18-0.142-0.309-0.361-0.387-0.657l-7.2-27.552
		C370.485,122.225,370.493,121.979,370.577,121.751z"/>
	<path fill="#FFFFFF" d="M760.846,245.174c0.457-1.771-0.037-3.502-1.481-5.194l-2.138-2.501l-13.875,11.857l1.928,2.254
		c0.682,0.798,1.416,1.41,2.202,1.836c0.785,0.425,1.637,0.633,2.553,0.622c0.915-0.011,1.908-0.26,2.979-0.748
		c1.07-0.488,2.223-1.258,3.453-2.312C758.93,248.884,760.39,246.945,760.846,245.174z"/>
	<polygon fill="#FFFFFF" points="733.205,222.026 728.627,224.694 732.92,228.92 735.483,224.334 738.368,219.29 738.203,219.128 	
		"/>
	<path fill="#FFFFFF" d="M825.202,410.09c1.655,0.5,4.021,0.42,7.101-0.238c3.199-0.684,5.453-1.584,6.763-2.701
		c1.31-1.118,1.729-2.763,1.266-4.938c-0.432-2.024-1.486-3.26-3.16-3.707c-1.675-0.448-4.081-0.336-7.22,0.335
		c-3.021,0.646-5.206,1.499-6.558,2.562c-1.353,1.063-1.806,2.636-1.359,4.72C822.491,408.269,823.548,409.591,825.202,410.09z"/>
	<polygon fill="#FFFFFF" points="772.88,267.998 767.918,269.855 771.436,274.745 774.736,270.658 778.432,266.174 778.296,265.986 
			"/>
	<path fill="#FFFFFF" d="M895.541,433c-0.29-3-0.598-5.859-0.934-8.337c-7.086-52.387-24.283-104.746-52.353-153.362
		c-34.754-60.195-82.214-108.704-137.033-143.656l19.949,74.338l-77.856,20.806c40.091,26.013,73.754,61.281,98.34,103.864
		c17.672,30.608,29.729,64.283,36.047,98.024c0.463,2.476,0.895,5.324,1.296,8.324h-51.091l54.891,53.99l56.656,56.553
		l54.827-54.674L954.999,433H895.541z M732.285,245.349c-0.174,0.087-0.381,0.012-0.622-0.227l-4.095-4.031
		c-0.374-0.369-0.547-0.699-0.52-0.993c0.029-0.293,0.16-0.669,0.395-1.126l2.737-4.961l-6.569-6.469l-5.113,2.816
		c-0.454,0.24-0.832,0.339-1.138,0.296c-0.306-0.042-0.61-0.215-0.919-0.519l-3.665-3.608c-0.242-0.239-0.359-0.45-0.352-0.635
		c0.009-0.185,0.25-0.408,0.726-0.67l25.996-13.66c0.411-0.197,0.773-0.301,1.09-0.313c0.313-0.012,0.69,0.199,1.133,0.632
		l4.16,4.096c0.462,0.456,0.678,0.84,0.65,1.156c-0.028,0.315-0.14,0.679-0.329,1.093l-13.02,26.5
		C732.64,245.054,732.458,245.261,732.285,245.349z M746.489,260.491c-1.771-0.803-3.541-2.237-5.308-4.303l-6.531-7.644
		c-0.28-0.329-0.396-0.605-0.349-0.831c0.052-0.225,0.19-0.437,0.424-0.635l21.614-18.471c0.231-0.198,0.463-0.304,0.692-0.318
		c0.229-0.013,0.475,0.132,0.735,0.438l6.563,7.679c1.746,2.043,2.877,4.002,3.394,5.877c0.518,1.875,0.582,3.646,0.198,5.315
		c-0.383,1.668-1.137,3.257-2.26,4.766c-1.124,1.509-2.453,2.918-3.987,4.229c-1.557,1.331-3.169,2.444-4.836,3.341
		c-1.667,0.896-3.366,1.414-5.098,1.552C750.012,261.625,748.261,261.292,746.489,260.491z M768.036,290.831
		c-0.186,0.057-0.376-0.053-0.575-0.329l-3.354-4.664c-0.308-0.427-0.421-0.782-0.344-1.066c0.078-0.284,0.271-0.632,0.577-1.043
		l3.538-4.428l-5.385-7.485l-5.517,1.913c-0.486,0.16-0.878,0.194-1.171,0.1c-0.294-0.094-0.565-0.316-0.817-0.667l-3.004-4.175
		c-0.198-0.276-0.277-0.505-0.237-0.685c0.039-0.181,0.313-0.36,0.826-0.538l27.932-9.075c0.438-0.125,0.813-0.167,1.125-0.125
		c0.313,0.041,0.648,0.313,1.01,0.815l3.409,4.739c0.378,0.527,0.527,0.942,0.446,1.249c-0.082,0.306-0.252,0.646-0.509,1.021
		l-17.308,23.922C768.436,290.601,768.221,290.774,768.036,290.831z M782.703,294.033l-8.704,5.279
		c-0.21,0.127-0.435,0.2-0.672,0.218c-0.239,0.018-0.472-0.157-0.695-0.527l-2.787-4.596c-0.353-0.582-0.241-1.046,0.334-1.396
		l24.352-14.767c0.233-0.143,0.473-0.206,0.715-0.191c0.242,0.017,0.468,0.195,0.676,0.539l5.574,9.191
		c0.753,1.241,1.287,2.506,1.604,3.796c0.317,1.289,0.392,2.544,0.222,3.768c-0.17,1.222-0.624,2.374-1.363,3.455
		c-0.739,1.08-1.789,2.033-3.148,2.857c-0.913,0.555-1.938,1.004-3.069,1.348c-1.133,0.343-2.312,0.435-3.534,0.274
		c-1.225-0.161-2.457-0.66-3.697-1.497c-1.241-0.838-2.414-2.167-3.519-3.99L782.703,294.033z M788.399,326.587
		c-0.24,0.001-0.458-0.19-0.655-0.575l-2.427-4.745c-0.184-0.357-0.225-0.64-0.124-0.847c0.1-0.208,0.287-0.381,0.561-0.521
		l20.82-10.648l-3.103-6.064c-0.195-0.385-0.243-0.674-0.137-0.867c0.106-0.193,0.279-0.351,0.522-0.476l3.688-1.886
		c0.271-0.138,0.514-0.194,0.732-0.167c0.218,0.027,0.426,0.233,0.622,0.618l9.558,18.688c0.31,0.604,0.167,1.059-0.427,1.363
		l-3.688,1.886c-0.244,0.125-0.478,0.166-0.703,0.125c-0.225-0.041-0.43-0.241-0.611-0.598l-3.123-6.105l-20.82,10.648
		C788.869,326.529,788.64,326.586,788.399,326.587z M802.383,358.044c-0.192,0.015-0.354-0.134-0.489-0.447l-2.249-5.287
		c-0.205-0.484-0.237-0.855-0.101-1.115c0.14-0.26,0.402-0.557,0.793-0.891l4.423-3.543l-3.607-8.485l-5.802,0.655
		c-0.512,0.049-0.898-0.004-1.165-0.16c-0.265-0.156-0.481-0.432-0.65-0.831l-2.014-4.732c-0.134-0.313-0.16-0.553-0.082-0.72
		c0.077-0.168,0.386-0.283,0.925-0.344l29.242-2.719c0.454-0.025,0.829,0.016,1.126,0.125c0.295,0.109,0.563,0.448,0.806,1.017
		l2.285,5.373c0.253,0.597,0.307,1.035,0.16,1.316c-0.146,0.28-0.388,0.575-0.721,0.885l-22.139,19.537
		C802.823,357.907,802.575,358.028,802.383,358.044z M806.73,370.949c-0.239-0.033-0.429-0.254-0.568-0.662l-1.734-5.039
		c-0.131-0.38-0.132-0.666-0.004-0.856c0.129-0.191,0.339-0.337,0.629-0.437l22.113-7.608l-2.216-6.44
		c-0.143-0.409-0.146-0.702-0.015-0.877c0.132-0.176,0.326-0.309,0.586-0.397l3.916-1.348c0.287-0.099,0.537-0.119,0.75-0.062
		c0.212,0.057,0.389,0.291,0.528,0.7l6.829,19.848c0.221,0.642,0.016,1.073-0.614,1.29l-3.917,1.348
		c-0.259,0.089-0.497,0.097-0.714,0.025c-0.218-0.072-0.392-0.298-0.521-0.678l-2.231-6.484l-22.113,7.608
		C807.203,370.958,806.968,370.981,806.73,370.949z M812.146,388.864c-0.234-0.046-0.411-0.276-0.529-0.692l-1.479-5.216
		c-0.102-0.356-0.082-0.626,0.057-0.811c0.139-0.183,0.354-0.317,0.647-0.401l27.354-7.761c0.293-0.083,0.555-0.085,0.784-0.006
		c0.229,0.08,0.395,0.298,0.494,0.654l1.48,5.215c0.117,0.416,0.081,0.707-0.109,0.874s-0.404,0.284-0.64,0.351l-27.354,7.76
		C812.618,388.9,812.383,388.91,812.146,388.864z M815.87,407.347c-0.419-1.964-0.547-3.697-0.385-5.201
		c0.163-1.504,0.531-2.814,1.104-3.932c0.574-1.118,1.325-2.068,2.253-2.85c0.926-0.783,1.94-1.45,3.041-2.001
		c1.104-0.551,2.249-1.001,3.439-1.351c1.191-0.35,2.354-0.646,3.492-0.888c0.865-0.186,1.855-0.342,2.971-0.47
		s2.25-0.148,3.409-0.065c1.158,0.084,2.321,0.301,3.492,0.651c1.169,0.35,2.259,0.915,3.27,1.694
		c1.011,0.779,1.911,1.811,2.701,3.095c0.791,1.284,1.393,2.893,1.806,4.826c0.606,2.839,0.65,5.207,0.135,7.103
		c-0.518,1.895-1.387,3.462-2.605,4.703c-1.221,1.239-2.688,2.201-4.401,2.883c-1.715,0.682-3.454,1.212-5.218,1.589
		c-1.704,0.364-3.503,0.613-5.396,0.75c-1.895,0.136-3.707-0.084-5.441-0.662c-1.733-0.577-3.286-1.627-4.658-3.15
		C817.505,412.548,816.503,410.307,815.87,407.347z M852.804,446.181c-0.165,0.16-0.415,0.262-0.748,0.302l-28.225,3.432
		c-0.304,0.037-0.547-0.004-0.729-0.122c-0.186-0.118-0.299-0.36-0.344-0.728l-0.459-3.772c-0.063-0.522-0.021-0.931,0.128-1.229
		c0.149-0.299,0.374-0.592,0.681-0.877c1.587-1.376,3.168-2.75,4.74-4.123c1.572-1.375,3.153-2.749,4.742-4.124l5.111-4.31
		l-0.018-0.138l-15.979,1.942c-0.243,0.029-0.471-0.006-0.683-0.104c-0.212-0.099-0.343-0.348-0.392-0.746l-0.621-5.105
		c-0.086-0.705,0.19-1.097,0.828-1.174l28.271-3.437c0.272-0.033,0.517,0.014,0.732,0.144c0.216,0.129,0.347,0.378,0.391,0.746
		l0.46,3.771c0.085,0.706,0.021,1.203-0.188,1.493c-0.212,0.29-0.5,0.581-0.862,0.875c-0.365,0.293-0.925,0.766-1.677,1.417
		c-0.752,0.65-1.609,1.386-2.572,2.203c-0.964,0.817-1.969,1.671-3.016,2.561s-2.052,1.743-3.015,2.561
		c-0.963,0.818-1.821,1.543-2.576,2.181c-0.754,0.636-1.299,1.099-1.633,1.389c0.003,0.03,0.014,0.053,0.031,0.066
		c0.017,0.013,0.026,0.034,0.03,0.065l15.979-1.941c0.242-0.03,0.484,0.002,0.728,0.098c0.243,0.094,0.391,0.355,0.442,0.787
		l0.621,5.104C853.029,445.756,852.969,446.021,852.804,446.181z"/>
	<path fill="#FFFFFF" d="M791.802,295.858c0.884,0.277,1.86,0.091,2.934-0.559c1.045-0.634,1.628-1.413,1.749-2.334
		c0.119-0.922-0.134-1.898-0.758-2.928l-1.729-2.853l-6.234,3.781l1.778,2.932C790.164,294.928,790.918,295.582,791.802,295.858z"/>
	<polygon fill="#FFFFFF" points="812.123,336.832 806.874,337.554 809.231,343.097 813.35,339.835 817.94,336.271 817.85,336.058 	
		"/>
	<path fill="#FFFFFF" d="M767.69,698.995c-0.243,0.318-0.47,0.689-0.679,1.114c-0.208,0.424-0.332,0.862-0.372,1.318
		c-0.04,0.455,0.055,0.925,0.28,1.408c0.227,0.484,0.645,0.958,1.251,1.423c0.947,0.725,1.836,0.944,2.665,0.664
		c0.83-0.28,1.572-0.85,2.229-1.709l2.306-3.02l-5.431-4.146L767.69,698.995z"/>
	<polygon fill="#FFFFFF" points="781.88,669.635 778.62,674.7 783.633,676.272 789.16,678.066 789.285,677.871 785.428,673.57 	"/>
	<path fill="#FFFFFF" d="M797.351,652.495c-0.573,1.059-0.76,2.039-0.553,2.941c0.205,0.902,0.86,1.652,1.962,2.25
		c1.074,0.584,2.041,0.693,2.897,0.332c0.855-0.36,1.571-1.069,2.146-2.129l1.591-2.933l-6.408-3.478L797.351,652.495z"/>
	<path fill="#FFFFFF" d="M723.579,731.396c-0.759,0.728-1.326,1.495-1.706,2.305c-0.379,0.809-0.538,1.671-0.475,2.585
		c0.063,0.913,0.368,1.891,0.92,2.931c0.548,1.041,1.384,2.146,2.506,3.315c2.243,2.337,4.264,3.684,6.059,4.038
		c1.795,0.353,3.495-0.24,5.1-1.779l2.374-2.279l-12.638-13.168L723.579,731.396z"/>
	<path fill="#FFFFFF" d="M820.268,602.597c-0.135,0.377-0.237,0.801-0.309,1.268c-0.07,0.468-0.056,0.924,0.045,1.37
		c0.099,0.445,0.33,0.864,0.693,1.258c0.361,0.393,0.902,0.719,1.622,0.978c1.122,0.401,2.036,0.345,2.741-0.174
		s1.241-1.285,1.605-2.303l1.284-3.576l-6.432-2.309L820.268,602.597z"/>
	<path fill="#FFFFFF" d="M828.052,576.541c-0.316,1.162-0.273,2.158,0.134,2.991c0.405,0.831,1.214,1.412,2.423,1.742
		c1.18,0.321,2.146,0.21,2.896-0.337c0.751-0.548,1.287-1.4,1.604-2.563l0.88-3.218l-7.032-1.924L828.052,576.541z"/>
	<path fill="#FFFFFF" d="M786.329,496.138c-3.907,75.872-35.305,146.651-89.422,200.771c-5.63,5.629-11.444,11.005-17.421,16.137
		c-1.913,1.644-3.843,3.259-5.787,4.851l-25.483-44.138l-20.096,75l-20.733,77.376l74.914,20.072l77.462,20.755l-29.767-51.558
		c2.003-1.494,3.988-3.013,5.964-4.542c94.126-72.925,156.287-185.121,161.913-312.021l-54.42,54.42L786.329,496.138z
		 M647.6,812.738c-0.542,1.123-1.353,2.17-2.429,3.141c-1.077,0.971-2.382,1.821-3.916,2.553c-0.39,0.188-0.902,0.422-1.536,0.708
		c-0.635,0.284-1.34,0.563-2.119,0.832c-0.776,0.271-1.59,0.504-2.436,0.704s-1.669,0.321-2.47,0.365
		c-0.815,0.084-1.328,0.015-1.536-0.207c-0.209-0.224-0.378-0.54-0.506-0.953l-0.579-2.722c-0.076-0.303-0.103-0.535-0.077-0.7
		c0.023-0.164,0.097-0.299,0.217-0.407c0.119-0.106,0.286-0.205,0.502-0.29c0.216-0.087,0.471-0.183,0.762-0.288
		c1.016-0.313,2.035-0.665,3.064-1.055c1.03-0.39,2.188-0.89,3.468-1.501c1.229-0.585,2.048-1.214,2.463-1.886
		c0.416-0.673,0.412-1.45-0.009-2.333c-0.211-0.442-0.443-0.771-0.701-0.987s-0.578-0.351-0.963-0.403
		c-0.385-0.054-0.843-0.029-1.377,0.072c-0.533,0.103-1.181,0.25-1.943,0.444c-1.316,0.322-2.641,0.599-3.97,0.825
		c-1.329,0.229-2.599,0.258-3.809,0.09c-1.21-0.169-2.34-0.62-3.393-1.354s-1.967-1.917-2.741-3.544
		c-0.777-1.629-1.121-3.141-1.034-4.537c0.087-1.396,0.479-2.668,1.183-3.815c0.702-1.147,1.646-2.184,2.832-3.104
		c1.188-0.922,2.478-1.715,3.871-2.38c0.445-0.213,1.013-0.458,1.702-0.735c0.688-0.277,1.433-0.548,2.23-0.81
		c0.8-0.263,1.622-0.494,2.468-0.694c0.846-0.199,1.662-0.336,2.449-0.405c0.829-0.059,1.345,0.019,1.547,0.228
		c0.201,0.209,0.354,0.525,0.453,0.952l0.645,2.64c0.123,0.618,0.101,1.002-0.068,1.15s-0.551,0.314-1.148,0.498
		c-0.528,0.183-1.114,0.387-1.762,0.61c-0.646,0.223-1.304,0.46-1.971,0.712c-0.668,0.25-1.332,0.508-1.994,0.771
		c-0.66,0.266-1.284,0.536-1.869,0.815c-1.422,0.678-2.354,1.395-2.8,2.147c-0.444,0.754-0.457,1.571-0.035,2.455
		c0.236,0.497,0.501,0.87,0.791,1.121c0.291,0.251,0.649,0.41,1.075,0.479c0.426,0.066,0.919,0.061,1.479-0.021
		c0.56-0.082,1.222-0.22,1.983-0.413c1.318-0.323,2.645-0.593,3.979-0.806c1.336-0.214,2.607-0.236,3.816-0.067
		c1.21,0.168,2.331,0.599,3.363,1.292s1.903,1.785,2.613,3.274c0.646,1.352,0.98,2.665,1.007,3.939
		C648.401,810.418,648.143,811.615,647.6,812.738z M672.538,798.913c-0.455,1.161-1.182,2.267-2.18,3.318
		c-0.999,1.051-2.234,2.001-3.706,2.849c-0.375,0.216-0.868,0.49-1.479,0.824c-0.608,0.333-1.291,0.664-2.047,0.993
		c-0.755,0.328-1.547,0.625-2.375,0.892c-0.827,0.264-1.639,0.449-2.434,0.554c-0.807,0.146-1.322,0.117-1.548-0.088
		c-0.227-0.206-0.419-0.509-0.578-0.911l-0.788-2.668c-0.099-0.296-0.144-0.525-0.13-0.69c0.012-0.166,0.072-0.308,0.184-0.425
		c0.111-0.116,0.271-0.228,0.479-0.328c0.209-0.104,0.455-0.219,0.737-0.346c0.986-0.393,1.979-0.82,2.975-1.289
		c0.997-0.468,2.109-1.056,3.342-1.765c1.178-0.679,1.948-1.368,2.31-2.07c0.362-0.703,0.299-1.478-0.188-2.324
		c-0.244-0.425-0.502-0.734-0.775-0.931c-0.272-0.196-0.604-0.306-0.991-0.328c-0.388-0.022-0.843,0.035-1.367,0.18
		c-0.522,0.143-1.157,0.34-1.903,0.593c-1.288,0.425-2.586,0.801-3.895,1.131c-1.307,0.329-2.569,0.457-3.789,0.382
		c-1.22-0.074-2.382-0.438-3.486-1.087c-1.104-0.652-2.107-1.76-3.009-3.322c-0.899-1.563-1.359-3.045-1.382-4.442
		c-0.021-1.398,0.273-2.697,0.886-3.896c0.611-1.198,1.473-2.304,2.584-3.313c1.11-1.011,2.336-1.901,3.675-2.672
		c0.429-0.247,0.976-0.534,1.641-0.865c0.665-0.33,1.386-0.657,2.162-0.98c0.776-0.322,1.579-0.616,2.406-0.882
		s1.631-0.463,2.409-0.595c0.823-0.121,1.343-0.085,1.561,0.108c0.219,0.191,0.394,0.495,0.527,0.913l0.845,2.582
		c0.171,0.606,0.178,0.99,0.021,1.151c-0.155,0.16-0.524,0.355-1.105,0.585c-0.514,0.224-1.082,0.473-1.709,0.746
		c-0.627,0.271-1.265,0.559-1.91,0.861c-0.646,0.3-1.288,0.608-1.927,0.924c-0.64,0.314-1.239,0.635-1.803,0.958
		c-1.364,0.786-2.239,1.572-2.626,2.357c-0.385,0.785-0.333,1.603,0.155,2.451c0.274,0.478,0.566,0.828,0.875,1.058
		c0.311,0.227,0.681,0.357,1.109,0.393s0.922-0.01,1.474-0.134s1.201-0.313,1.946-0.565c1.289-0.424,2.591-0.794,3.905-1.109
		c1.314-0.316,2.582-0.438,3.802-0.362c1.218,0.074,2.369,0.416,3.452,1.028c1.083,0.609,2.036,1.633,2.858,3.063
		c0.747,1.297,1.185,2.581,1.309,3.852C673.157,796.537,672.992,797.752,672.538,798.913z M697.479,785.027l-15.204,10.354
		c-0.536,0.365-0.992,0.271-1.368-0.279l-2.331-3.424c-0.154-0.227-0.226-0.453-0.212-0.682c0.013-0.229,0.185-0.456,0.517-0.683
		l9.919-6.756l-3.149-4.624l-8.654,5.896c-0.587,0.398-1.062,0.334-1.423-0.196l-2.35-3.449c-0.154-0.227-0.228-0.456-0.216-0.686
		c0.013-0.229,0.196-0.466,0.555-0.71l8.654-5.896l-3.718-5.459l-10.109,6.888c-0.562,0.382-1.031,0.295-1.41-0.262l-2.35-3.447
		c-0.153-0.229-0.223-0.45-0.202-0.667c0.021-0.218,0.197-0.439,0.528-0.665l15.356-10.459c0.333-0.228,0.606-0.303,0.825-0.229
		c0.219,0.072,0.404,0.224,0.56,0.451l16.031,23.537c0.172,0.252,0.256,0.499,0.253,0.742S697.81,784.801,697.479,785.027z
		 M723.444,764.688l-2.957,2.385c-0.555,0.447-1.009,0.656-1.366,0.631c-0.358-0.026-0.759-0.116-1.2-0.271
		c-0.44-0.153-1.138-0.378-2.089-0.672c-0.951-0.293-2.028-0.633-3.231-1.018c-1.202-0.385-2.459-0.786-3.768-1.202
		c-1.31-0.418-2.564-0.819-3.769-1.204c-1.202-0.385-2.273-0.729-3.213-1.032c-0.938-0.303-1.619-0.52-2.043-0.648
		c-0.022,0.019-0.037,0.039-0.04,0.062c-0.002,0.021-0.015,0.042-0.038,0.062l10.104,12.529c0.153,0.19,0.255,0.414,0.302,0.67
		c0.048,0.257-0.097,0.521-0.433,0.791L705.698,779c-0.287,0.232-0.544,0.321-0.768,0.266c-0.224-0.055-0.44-0.214-0.651-0.476
		l-17.849-22.133c-0.191-0.238-0.286-0.467-0.282-0.686c0.002-0.218,0.147-0.442,0.437-0.676l2.958-2.386
		c0.408-0.329,0.779-0.51,1.11-0.542c0.331-0.031,0.698,0.006,1.103,0.113c2.008,0.618,4.01,1.231,6.008,1.841
		c1.999,0.606,4.002,1.222,6.01,1.841l6.36,2.058l0.108-0.087l-10.104-12.529c-0.153-0.19-0.244-0.401-0.272-0.635
		c-0.029-0.232,0.112-0.475,0.426-0.727l4.004-3.229c0.553-0.446,1.031-0.42,1.436,0.079l17.875,22.169
		c0.173,0.214,0.262,0.446,0.267,0.699C723.876,764.213,723.733,764.455,723.444,764.688z M747.125,742.549l-7.288,6.993
		c-1.938,1.86-3.829,3.104-5.671,3.727s-3.607,0.792-5.295,0.506c-1.688-0.286-3.318-0.947-4.889-1.982
		c-1.571-1.035-3.057-2.28-4.452-3.735c-1.418-1.479-2.623-3.022-3.614-4.636s-1.605-3.28-1.844-5
		c-0.238-1.721-0.008-3.487,0.69-5.303c0.699-1.814,2.029-3.663,3.99-5.545l7.254-6.962c0.313-0.3,0.582-0.432,0.811-0.396
		c0.228,0.035,0.446,0.164,0.657,0.385l19.688,20.515c0.211,0.221,0.331,0.444,0.357,0.674
		C747.547,742.017,747.415,742.271,747.125,742.549z M765.732,722.182l-12.234,13.736c-0.432,0.484-0.897,0.505-1.396,0.062
		l-3.094-2.756c-0.204-0.182-0.328-0.385-0.371-0.609c-0.044-0.225,0.068-0.487,0.336-0.786l7.98-8.962l-4.177-3.721l-6.966,7.818
		c-0.473,0.531-0.947,0.583-1.428,0.155l-3.116-2.775c-0.206-0.184-0.331-0.388-0.375-0.612c-0.045-0.227,0.077-0.5,0.364-0.822
		l6.965-7.82l-4.931-4.393l-8.137,9.136c-0.451,0.506-0.931,0.536-1.433,0.09l-3.114-2.776c-0.206-0.183-0.326-0.382-0.358-0.598
		c-0.033-0.216,0.084-0.474,0.352-0.772l12.358-13.875c0.267-0.3,0.515-0.44,0.744-0.423c0.229,0.019,0.445,0.119,0.651,0.303
		l21.267,18.94c0.228,0.203,0.37,0.422,0.427,0.659C766.104,721.614,766,721.882,765.732,722.182z M784.043,698.888l-6.889,9.023
		c-0.75,0.98-1.642,1.846-2.673,2.593c-1.032,0.747-2.138,1.275-3.313,1.582c-1.176,0.306-2.41,0.335-3.701,0.088
		c-1.292-0.249-2.582-0.862-3.87-1.847c-0.606-0.464-1.181-1.011-1.722-1.636c-0.541-0.627-0.979-1.322-1.321-2.087
		c-0.339-0.766-0.562-1.596-0.665-2.49c-0.104-0.896-0.047-1.843,0.177-2.839l-12.789-2.595c-0.361-0.082-0.594-0.229-0.698-0.444
		c-0.104-0.217-0.054-0.459,0.152-0.729l3.459-4.528c0.28-0.369,0.564-0.628,0.852-0.777c0.288-0.149,0.637-0.165,1.046-0.048
		l11.288,2.673l1.827-2.394l-8.419-6.43c-0.195-0.148-0.344-0.331-0.448-0.547c-0.104-0.216-0.024-0.495,0.236-0.839l3.233-4.235
		c0.264-0.344,0.51-0.515,0.738-0.514c0.23,0,0.467,0.094,0.71,0.278l22.636,17.281c0.219,0.167,0.363,0.366,0.438,0.598
		S784.306,698.544,784.043,698.888z M797.024,679.489l-3.159,4.909c-0.353,0.546-0.685,0.836-0.998,0.872
		c-0.314,0.037-0.693,0.005-1.137-0.098l-28.604-7.329c-0.358-0.121-0.598-0.257-0.72-0.407c-0.119-0.151-0.089-0.369,0.096-0.655
		l3.108-4.832c0.283-0.441,0.571-0.678,0.864-0.709c0.294-0.032,0.688,0.019,1.184,0.153l5.416,1.668l4.989-7.755l-3.803-4.43
		c-0.327-0.396-0.502-0.746-0.521-1.054c-0.021-0.309,0.086-0.644,0.318-1.006l2.783-4.325c0.186-0.286,0.367-0.443,0.55-0.474
		c0.184-0.029,0.45,0.16,0.805,0.572l18.686,22.657c0.275,0.361,0.453,0.695,0.528,1.001
		C797.488,678.557,797.359,678.97,797.024,679.489z M813.782,650.287l-5.126,9.448c-0.691,1.274-1.516,2.375-2.469,3.3
		c-0.952,0.924-2,1.621-3.143,2.091c-1.142,0.47-2.365,0.658-3.672,0.564c-1.305-0.095-2.657-0.52-4.055-1.277
		c-0.94-0.51-1.846-1.167-2.712-1.972c-0.868-0.806-1.541-1.776-2.021-2.914c-0.479-1.139-0.669-2.454-0.571-3.947
		c0.098-1.494,0.654-3.178,1.67-5.05l2.1-3.87l-8.948-4.854c-0.216-0.116-0.391-0.273-0.526-0.472
		c-0.138-0.196-0.103-0.485,0.104-0.864l2.563-4.726c0.323-0.597,0.781-0.735,1.372-0.415l25.032,13.58
		c0.242,0.13,0.416,0.305,0.525,0.521C814.015,649.648,813.974,649.934,813.782,650.287z M825.388,625.339l-7.536,16.78
		c-0.266,0.592-0.702,0.751-1.312,0.478l-3.778-1.695c-0.25-0.112-0.429-0.27-0.538-0.472c-0.107-0.2-0.081-0.484,0.084-0.851
		l4.915-10.948l-5.104-2.292l-4.289,9.555c-0.29,0.646-0.729,0.84-1.315,0.576l-3.806-1.709c-0.252-0.112-0.434-0.271-0.542-0.473
		c-0.111-0.201-0.077-0.5,0.1-0.895l4.289-9.554l-6.022-2.705l-5.012,11.159c-0.277,0.62-0.725,0.792-1.339,0.518l-3.806-1.711
		c-0.252-0.111-0.426-0.267-0.521-0.462c-0.097-0.195-0.063-0.478,0.103-0.843l7.61-16.95c0.165-0.365,0.359-0.574,0.584-0.627
		c0.225-0.052,0.462-0.021,0.713,0.093l25.979,11.664c0.277,0.125,0.479,0.292,0.604,0.5
		C825.571,624.686,825.552,624.972,825.388,625.339z M835.821,597.546l-3.836,10.686c-0.417,1.161-1.005,2.256-1.764,3.28
		c-0.758,1.023-1.649,1.859-2.68,2.509c-1.028,0.647-2.195,1.051-3.501,1.204c-1.307,0.154-2.723-0.042-4.247-0.59
		c-0.719-0.258-1.432-0.604-2.137-1.037s-1.335-0.964-1.891-1.59c-0.556-0.625-1.019-1.35-1.389-2.172
		c-0.371-0.822-0.601-1.741-0.69-2.759l-12.976,1.396c-0.368,0.031-0.635-0.039-0.8-0.213c-0.165-0.175-0.19-0.421-0.075-0.74
		l1.926-5.363c0.156-0.438,0.351-0.771,0.578-1c0.229-0.229,0.557-0.352,0.982-0.361l11.565-0.868l1.019-2.834l-9.97-3.58
		c-0.23-0.083-0.43-0.211-0.594-0.385c-0.165-0.175-0.175-0.465-0.027-0.872l1.8-5.015c0.146-0.407,0.33-0.646,0.55-0.714
		c0.22-0.069,0.473-0.053,0.761,0.052l26.803,9.622c0.261,0.093,0.458,0.236,0.6,0.437
		C835.97,596.837,835.968,597.139,835.821,597.546z M843.547,570.643l-2.836,10.369c-0.383,1.4-0.933,2.658-1.65,3.776
		c-0.718,1.116-1.577,2.033-2.583,2.751c-1.004,0.719-2.152,1.182-3.445,1.389c-1.292,0.205-2.706,0.102-4.239-0.318
		c-1.032-0.282-2.063-0.717-3.091-1.303c-1.027-0.586-1.904-1.378-2.63-2.376c-0.726-1-1.212-2.236-1.457-3.713
		c-0.245-1.478-0.088-3.243,0.475-5.299l1.161-4.245l-9.819-2.687c-0.235-0.064-0.442-0.178-0.621-0.338
		c-0.178-0.161-0.21-0.45-0.096-0.866l1.418-5.186c0.18-0.654,0.594-0.896,1.242-0.718l27.469,7.512
		c0.266,0.073,0.476,0.203,0.631,0.39C843.628,569.969,843.653,570.256,843.547,570.643z"/>
	<path fill="#FFFFFF" d="M619.141,753.536c-42.57,21.712-89.97,33.216-139.141,33.216c-35.343,0-69.769-5.95-102.148-17.352
		c-2.374-0.836-4.736-1.701-7.088-2.597l25.545-44.246l-74.982,20.093l-77.394,20.735l20.069,74.896l20.761,77.479l29.729-51.492
		c2.292,0.988,4.593,1.963,6.905,2.91C370.31,887.237,423.863,898.298,480,898.298c69.509,0,135.053-16.96,192.732-46.957
		l-74.453-19.949L619.141,753.536z M348.688,830.66c-0.202,0.132-0.49,0.123-0.863-0.026l-17.058-6.888
		c-0.602-0.243-0.776-0.674-0.527-1.293l1.551-3.84c0.103-0.255,0.252-0.439,0.449-0.557c0.196-0.117,0.481-0.1,0.854,0.052
		l11.128,4.491l2.096-5.187l-9.711-3.921c-0.658-0.268-0.867-0.697-0.627-1.293l1.563-3.869c0.103-0.255,0.253-0.441,0.451-0.561
		c0.197-0.118,0.498-0.097,0.897,0.066l9.71,3.92l2.473-6.123l-11.343-4.58c-0.63-0.254-0.818-0.693-0.567-1.317l1.563-3.868
		c0.104-0.257,0.25-0.437,0.442-0.539c0.192-0.104,0.475-0.08,0.847,0.069l17.229,6.956c0.372,0.15,0.588,0.337,0.647,0.561
		c0.062,0.222,0.039,0.46-0.063,0.715l-10.662,26.407C349.051,830.32,348.892,830.528,348.688,830.66z M383.007,817.168
		c-0.224-0.008-0.617-0.147-1.178-0.423c-0.511-0.229-1.079-0.479-1.704-0.758c-0.624-0.279-1.266-0.557-1.925-0.829
		c-0.658-0.272-1.319-0.539-1.983-0.799c-0.663-0.259-1.303-0.486-1.921-0.683c-1.502-0.479-2.672-0.594-3.512-0.347
		c-0.84,0.246-1.408,0.835-1.705,1.768c-0.167,0.524-0.229,0.979-0.189,1.36c0.042,0.381,0.194,0.742,0.458,1.084
		c0.266,0.34,0.629,0.672,1.094,0.996c0.465,0.323,1.042,0.676,1.73,1.055c1.184,0.666,2.334,1.376,3.455,2.134
		s2.065,1.61,2.833,2.561c0.768,0.949,1.292,2.031,1.571,3.242s0.169,2.604-0.331,4.177c-0.454,1.429-1.106,2.615-1.959,3.564
		c-0.853,0.946-1.86,1.646-3.023,2.094c-1.164,0.447-2.47,0.659-3.92,0.631c-1.45-0.027-2.983-0.299-4.604-0.813
		c-0.412-0.131-0.947-0.309-1.605-0.532c-0.657-0.228-1.362-0.507-2.115-0.842c-0.751-0.335-1.505-0.719-2.259-1.15
		c-0.754-0.433-1.438-0.906-2.052-1.422c-0.652-0.496-0.979-0.897-0.979-1.201c0-0.307,0.095-0.652,0.282-1.041l1.438-2.382
		c0.151-0.273,0.292-0.462,0.422-0.564c0.13-0.104,0.275-0.153,0.437-0.149c0.162,0.004,0.351,0.047,0.566,0.133
		c0.216,0.084,0.467,0.188,0.751,0.312c0.955,0.463,1.941,0.904,2.958,1.324c1.018,0.419,2.204,0.845,3.557,1.275
		c1.296,0.41,2.325,0.514,3.087,0.307c0.764-0.207,1.292-0.776,1.588-1.708c0.148-0.467,0.203-0.866,0.163-1.199
		c-0.04-0.334-0.182-0.651-0.426-0.954s-0.596-0.599-1.055-0.888c-0.458-0.291-1.033-0.626-1.723-1.005
		c-1.183-0.665-2.337-1.368-3.463-2.111c-1.125-0.742-2.071-1.589-2.84-2.539c-0.768-0.948-1.284-2.052-1.549-3.307
		c-0.265-1.256-0.125-2.743,0.421-4.462s1.329-3.059,2.348-4.019c1.018-0.959,2.175-1.617,3.472-1.976s2.692-0.468,4.188-0.329
		c1.496,0.138,2.979,0.441,4.451,0.909c0.471,0.15,1.053,0.359,1.746,0.627c0.693,0.269,1.42,0.58,2.183,0.934
		c0.763,0.356,1.521,0.748,2.274,1.182c0.754,0.433,1.442,0.892,2.066,1.379c0.644,0.523,0.968,0.933,0.973,1.223
		s-0.101,0.625-0.32,1.006l-1.335,2.366C383.51,816.91,383.232,817.175,383.007,817.168z M414.673,818.986l-6.341,27.764
		c-0.063,0.268-0.189,0.479-0.384,0.641c-0.194,0.159-0.474,0.198-0.834,0.115l-3.704-0.846c-0.693-0.158-1.141-0.386-1.341-0.684
		c-0.201-0.298-0.378-0.667-0.531-1.108c-0.152-0.443-0.407-1.128-0.767-2.057c-0.357-0.93-0.759-1.983-1.2-3.169
		c-0.443-1.183-0.905-2.417-1.389-3.702c-0.481-1.286-0.944-2.521-1.388-3.704c-0.443-1.184-0.835-2.236-1.179-3.162
		c-0.342-0.925-0.593-1.595-0.753-2.007c-0.029-0.007-0.055-0.005-0.073,0.008c-0.018,0.011-0.042,0.014-0.073,0.006l-3.584,15.691
		c-0.054,0.238-0.167,0.456-0.339,0.652s-0.467,0.245-0.89,0.148l-5.015-1.146c-0.361-0.082-0.589-0.229-0.684-0.438
		s-0.104-0.479-0.03-0.808l6.332-27.718c0.068-0.299,0.188-0.514,0.361-0.646c0.173-0.135,0.439-0.159,0.802-0.076l3.704,0.846
		c0.512,0.117,0.883,0.296,1.113,0.537c0.229,0.241,0.429,0.553,0.594,0.936c0.756,1.96,1.515,3.912,2.274,5.858
		c0.76,1.944,1.518,3.897,2.273,5.858l2.322,6.269l0.136,0.032l3.584-15.693c0.055-0.238,0.165-0.439,0.329-0.604
		c0.165-0.167,0.443-0.205,0.835-0.115l5.014,1.145C414.542,817.969,414.816,818.361,414.673,818.986z M444.479,834.475
		c-0.073,1.239-0.189,2.436-0.346,3.586c-0.119,0.878-0.307,1.863-0.563,2.955c-0.257,1.091-0.622,2.167-1.094,3.229
		c-0.471,1.063-1.068,2.083-1.795,3.063c-0.726,0.981-1.626,1.816-2.7,2.503c-1.075,0.688-2.352,1.187-3.827,1.494
		c-1.477,0.31-3.193,0.33-5.152,0.064c-2.877-0.391-5.12-1.15-6.728-2.278s-2.789-2.477-3.542-4.044s-1.161-3.273-1.224-5.117
		c-0.061-1.845,0.029-3.659,0.271-5.446c0.233-1.728,0.607-3.505,1.121-5.332c0.514-1.828,1.334-3.46,2.465-4.896
		c1.131-1.436,2.644-2.541,4.542-3.315c1.897-0.777,4.347-0.961,7.346-0.555c1.99,0.271,3.664,0.736,5.024,1.398
		c1.358,0.663,2.468,1.453,3.324,2.372c0.857,0.919,1.498,1.946,1.921,3.084c0.422,1.137,0.707,2.315,0.852,3.54
		C444.518,832.004,444.554,833.235,444.479,834.475z M469.832,853.417c-0.015,0.275-0.096,0.508-0.246,0.699
		c-0.148,0.189-0.424,0.275-0.826,0.255l-10.734-0.568c-1.449-0.078-2.796-0.348-4.04-0.813c-1.244-0.463-2.323-1.109-3.238-1.938
		c-0.915-0.83-1.61-1.854-2.087-3.072c-0.478-1.22-0.673-2.623-0.589-4.211c0.057-1.068,0.262-2.168,0.614-3.297
		c0.354-1.129,0.942-2.153,1.765-3.074c0.823-0.922,1.929-1.658,3.318-2.213c1.392-0.555,3.149-0.773,5.278-0.66l4.396,0.231
		l0.539-10.166c0.013-0.244,0.079-0.471,0.197-0.679c0.12-0.208,0.396-0.3,0.827-0.277l5.367,0.285c0.679,0.035,1,0.39,0.964,1.061
		L469.832,853.417z M498.461,849.082c-0.5,1.173-1.229,2.158-2.186,2.958s-2.125,1.421-3.508,1.863
		c-1.381,0.439-2.92,0.68-4.618,0.715c-0.433,0.009-0.996,0.014-1.691,0.013c-0.694-0.001-1.453-0.038-2.273-0.112
		c-0.818-0.073-1.655-0.194-2.51-0.359c-0.853-0.165-1.653-0.396-2.4-0.685c-0.778-0.259-1.218-0.532-1.315-0.82
		c-0.099-0.289-0.122-0.647-0.069-1.076l0.593-2.719c0.056-0.309,0.128-0.53,0.218-0.67c0.09-0.141,0.211-0.233,0.365-0.282
		c0.153-0.05,0.346-0.068,0.577-0.059c0.232,0.011,0.503,0.026,0.813,0.053c1.053,0.13,2.129,0.229,3.227,0.298
		c1.1,0.068,2.358,0.089,3.778,0.06c1.359-0.027,2.366-0.265,3.021-0.705c0.654-0.441,0.972-1.151,0.95-2.13
		c-0.011-0.489-0.088-0.886-0.232-1.188c-0.146-0.303-0.383-0.56-0.711-0.766c-0.329-0.208-0.757-0.374-1.285-0.501
		c-0.527-0.126-1.18-0.258-1.955-0.395c-1.333-0.247-2.653-0.54-3.957-0.881c-1.305-0.339-2.474-0.835-3.508-1.486
		c-1.033-0.65-1.877-1.527-2.534-2.629c-0.656-1.104-1.003-2.557-1.042-4.358c-0.038-1.805,0.271-3.323,0.924-4.561
		c0.654-1.237,1.537-2.234,2.648-2.991s2.397-1.312,3.857-1.663c1.46-0.353,2.963-0.544,4.507-0.576
		c0.493-0.011,1.112,0,1.854,0.029c0.741,0.031,1.531,0.091,2.367,0.181c0.836,0.091,1.681,0.218,2.533,0.384
		c0.854,0.165,1.652,0.377,2.399,0.637c0.779,0.29,1.217,0.571,1.315,0.845c0.099,0.272,0.104,0.624,0.021,1.055l-0.5,2.672
		c-0.142,0.613-0.318,0.953-0.534,1.02c-0.215,0.066-0.632,0.061-1.252-0.02c-0.558-0.051-1.176-0.105-1.856-0.167
		c-0.682-0.063-1.377-0.117-2.089-0.162c-0.712-0.048-1.422-0.086-2.135-0.116c-0.712-0.031-1.392-0.04-2.04-0.026
		c-1.574,0.032-2.721,0.302-3.436,0.807c-0.716,0.504-1.063,1.243-1.043,2.223c0.012,0.551,0.099,1,0.26,1.349
		c0.162,0.349,0.424,0.641,0.783,0.878c0.36,0.236,0.813,0.435,1.356,0.592c0.544,0.155,1.203,0.303,1.979,0.439
		c1.334,0.247,2.653,0.547,3.959,0.903c1.305,0.354,2.475,0.856,3.507,1.509c1.033,0.65,1.879,1.505,2.533,2.563
		c0.656,1.057,1,2.409,1.035,4.061C499.196,846.574,498.962,847.909,498.461,849.082z M525.553,851.522
		c-0.119,0.211-0.379,0.335-0.778,0.373l-18.313,1.74c-0.646,0.063-1-0.24-1.063-0.903l-0.394-4.123
		c-0.026-0.272,0.022-0.507,0.144-0.7c0.121-0.194,0.383-0.312,0.781-0.35l11.946-1.136l-0.529-5.568l-10.424,0.99
		c-0.708,0.067-1.092-0.219-1.151-0.856l-0.396-4.155c-0.025-0.272,0.021-0.508,0.143-0.704c0.122-0.195,0.397-0.313,0.827-0.354
		l10.425-0.992l-0.625-6.573l-12.178,1.158c-0.676,0.063-1.047-0.239-1.109-0.909l-0.396-4.153
		c-0.024-0.273,0.022-0.502,0.146-0.682c0.122-0.181,0.385-0.29,0.783-0.328l18.496-1.759c0.399-0.038,0.679,0.027,0.833,0.197
		c0.155,0.17,0.246,0.392,0.272,0.666l2.695,28.35C525.718,851.054,525.672,851.312,525.553,851.522z M554.859,846.833
		c-0.104,0.219-0.367,0.366-0.794,0.439l-11.188,1.931c-1.217,0.209-2.458,0.237-3.724,0.083s-2.433-0.521-3.503-1.094
		c-1.071-0.576-1.996-1.395-2.774-2.454c-0.778-1.061-1.306-2.388-1.581-3.984c-0.13-0.754-0.18-1.545-0.149-2.371
		c0.028-0.827,0.181-1.637,0.45-2.428c0.271-0.792,0.672-1.552,1.205-2.278c0.533-0.729,1.22-1.382,2.061-1.961l-7.611-10.6
		c-0.209-0.307-0.278-0.573-0.209-0.802c0.071-0.229,0.273-0.373,0.607-0.433l5.615-0.969c0.457-0.078,0.843-0.075,1.154,0.012
		c0.313,0.085,0.579,0.312,0.799,0.677l6.457,9.636l2.969-0.512l-1.801-10.439c-0.042-0.241-0.026-0.477,0.043-0.705
		c0.07-0.229,0.318-0.382,0.744-0.455l5.251-0.905c0.427-0.072,0.723-0.03,0.893,0.126c0.168,0.157,0.276,0.387,0.33,0.688
		l4.841,28.063C554.991,846.368,554.963,846.613,554.859,846.833z"/>
	<path fill="#FFFFFF" d="M456.813,841.247c-0.727,0.573-1.123,1.486-1.189,2.737c-0.064,1.222,0.25,2.142,0.944,2.76
		c0.693,0.618,1.643,0.96,2.846,1.023l3.332,0.177l0.386-7.281l-3.423-0.182C458.503,840.418,457.539,840.672,456.813,841.247z"/>
	<path fill="#FFFFFF" d="M432.314,826.6c-2.174-0.295-3.775,0.251-4.806,1.64c-1.03,1.388-1.757,3.641-2.181,6.762
		c-0.439,3.241-0.355,5.667,0.252,7.276c0.608,1.608,2.014,2.563,4.218,2.862c2.05,0.278,3.57-0.295,4.559-1.719
		c0.987-1.424,1.697-3.727,2.13-6.907c0.415-3.06,0.352-5.404-0.191-7.037C435.754,827.845,434.426,826.886,432.314,826.6z"/>
	<path fill="#FFFFFF" d="M542.005,836.229c-0.395,0.067-0.813,0.188-1.256,0.356c-0.44,0.169-0.83,0.405-1.169,0.713
		c-0.34,0.307-0.59,0.714-0.753,1.225c-0.163,0.509-0.181,1.14-0.05,1.893c0.203,1.176,0.704,1.942,1.502,2.301
		c0.799,0.358,1.729,0.446,2.796,0.263l3.744-0.646l-1.161-6.734L542.005,836.229z"/>
</g>
<g>
	<g>
		<path fill="#FFFFFF" d="M620.472,474.737c0-3.694-2.021-7.052-5.369-8.726l-128.5-70.456c-3.019-1.679-6.714-1.679-9.733,0
			l-128.502,70.456c-3.346,1.674-5.367,5.032-5.367,8.726c0,3.688,2.021,7.042,5.367,8.722l26.85,14.759l-26.85,14.762
			c-3.346,1.681-5.367,5.031-5.367,8.728c0,3.688,2.021,7.042,5.367,8.723l26.85,14.756l-26.85,14.765
			c-3.346,1.681-5.367,5.033-5.367,8.728c0,3.688,2.021,7.041,5.367,8.722l128.502,70.122c1.34,0.667,3.019,1.343,4.699,1.343
			c1.673,0,3.361-0.34,4.696-1.343l128.503-70.122c3.355-1.681,5.366-5.033,5.366-8.722c0-3.694-2.011-7.047-5.366-8.728
			l-26.843-14.765l26.843-14.756c3.355-1.681,5.366-5.034,5.366-8.723c0-3.696-2.011-7.047-5.366-8.728l-26.843-14.762
			l26.843-14.759C618.451,481.778,620.472,478.425,620.472,474.737z M589.604,568.678l-107.702,58.711l-107.697-58.711
			l22.151-12.079l80.847,43.95c1.34,0.67,3.023,1.345,4.699,1.345c1.683,0,3.355-0.34,4.701-1.345l80.857-43.95L589.604,568.678z
			 M589.604,521.707l-107.702,58.711l-107.697-58.711l22.151-12.081l80.847,43.955c1.34,0.67,3.023,1.343,4.699,1.343
			c1.683,0,3.355-0.341,4.701-1.343l80.857-43.955L589.604,521.707z M481.901,533.447l-107.697-58.71l107.697-58.717l107.702,58.717
			L481.901,533.447z"/>
	</g>
	<g>
		<g>
			<path fill="#FFFFFF" d="M377.765,347.255c27.952-21.563,62.244-33.831,97.59-34.91v30.591
				c-28.24,1.06-55.641,10.882-78.148,28.016L377.765,347.255z"/>
			<path fill="#FFFFFF" d="M316.576,442.622c7.902-34.344,26.632-65.585,53.319-88.898l19.439,23.697
				c-21.213,18.803-36.199,43.758-42.729,71.173L316.576,442.622z"/>
			<path fill="#FFFFFF" d="M563.695,370.952c-22.51-17.134-49.91-26.957-78.152-28.016v-30.591
				c35.349,1.079,69.639,13.347,97.59,34.91L563.695,370.952z"/>
			<path fill="#FFFFFF" d="M614.295,448.594c-6.53-27.415-21.516-52.371-42.734-71.173l19.445-23.697
				c26.676,23.318,45.417,54.554,53.313,88.898L614.295,448.594z"/>
		</g>
		<g>
			<path fill="#FFFFFF" d="M498.818,483.88l26.824-118.567c0.579-2.548-1.102-5.21-3.862-6.133c-2.767-0.918-5.701,0.204-6.764,2.59
				l-49.412,110.636c-0.842,1.44-1.571,2.985-2.127,4.652c-0.034,0.098-0.055,0.191-0.085,0.287
				c-3.479,10.951,1.218,22.271,10.618,25.388c9.471,3.143,20.12-3.257,23.78-14.297l0,0
				C498.286,486.919,498.618,485.392,498.818,483.88z M477,493.703c-5.304-1.761-8.174-7.485-6.416-12.789
				c1.761-5.303,7.483-8.169,12.787-6.415c5.297,1.76,8.172,7.484,6.411,12.789C488.028,492.581,482.301,495.457,477,493.703z"/>
		</g>
	</g>
</g>
</svg>
